<svg xmlns="http://www.w3.org/2000/svg" xmlns:xlink="http://www.w3.org/1999/xlink" width="17.762" height="20" viewBox="0 0 17.762 20">
  <defs>
    <clipPath id="clip-path">
      <rect id="矩形_1497" data-name="矩形 1497" width="17.762" height="20" fill="#93b04a"/>
    </clipPath>
  </defs>
  <g id="组_1975" data-name="组 1975" transform="translate(-1388.747 2564.174)">
    <g id="组_1973" data-name="组 1973" transform="translate(1388.747 -2564.174)">
      <g id="组_1972" data-name="组 1972" transform="translate(0 0)" clip-path="url(#clip-path)">
        <path id="路径_3685" data-name="路径 3685" d="M1406.491-2559.4a1.422,1.422,0,0,0-1.127-1.245,26.66,26.66,0,0,1-3.645-.834,13.538,13.538,0,0,1-3.255-1.894,1.5,1.5,0,0,0-1.741,0,8.579,8.579,0,0,1-3.281,1.882,12.317,12.317,0,0,1-3.543.873,1.324,1.324,0,0,0-1.116,1.246c-.028.627-.037,3.127-.037,5.882,0,4.982,5.913,9.8,8.868,9.8s7.965-3.4,8.767-9.728a57.562,57.562,0,0,0,.062-5.966Zm-3.218,3.848-6.175,5.793a.845.845,0,0,1-1.026.1l-.163-.136-3.409-3.527a.843.843,0,0,1-.224-.609.841.841,0,0,1,.275-.587.853.853,0,0,1,1.2.051l2.806,2.927,5.561-5.231a.857.857,0,0,1,1.2.05.846.846,0,0,1,.223.608.847.847,0,0,1-.273.588v-.028Zm0,0" transform="translate(-1388.747 2563.667)" fill="#93b04a"/>
      </g>
    </g>
  </g>
</svg>
