<svg id="组_1959" data-name="组 1959" xmlns="http://www.w3.org/2000/svg" xmlns:xlink="http://www.w3.org/1999/xlink" width="18.202" height="19.91" viewBox="0 0 18.202 19.91">
  <defs>
    <clipPath id="clip-path">
      <rect id="矩形_1490" data-name="矩形 1490" width="18.202" height="19.91" fill="#93b04a"/>
    </clipPath>
  </defs>
  <g id="组_1956" data-name="组 1956" transform="translate(0 0)">
    <g id="组_1955" data-name="组 1955" clip-path="url(#clip-path)">
      <path id="路径_3678" data-name="路径 3678" d="M103.483,107.835v-1.988a5.053,5.053,0,0,1,10.1,0v1.988h2.021a2.038,2.038,0,0,1,1.429.582,1.971,1.971,0,0,1,.592,1.406v8.945a1.972,1.972,0,0,1-.592,1.406,2.038,2.038,0,0,1-1.429.582H101.462a2.038,2.038,0,0,1-1.429-.582,1.971,1.971,0,0,1-.592-1.406v-8.945a2,2,0,0,1,2.021-1.988Zm2.021,0h6.063v-1.988a3.032,3.032,0,0,0-6.063,0Zm4.042,7.951V112.8a1.011,1.011,0,0,0-2.021,0v2.982a1.011,1.011,0,0,0,2.021,0Zm0,0" transform="translate(-99.445 -100.874)" fill="#93b04a"/>
    </g>
  </g>
</svg>
