<svg xmlns="http://www.w3.org/2000/svg" width="19.911" height="18.498" viewBox="0 0 19.911 18.498">
  <path id="路径_3679" data-name="路径 3679" d="M92.891,545.292c-1.01-2.752,1.193-6.54,4.356-6.168,2.7-.322,4.8,2.424,4.665,4.937-.013,1.875-1.515,3.194-2.664,4.482,4.2.7,7.209,4.35,7.973,8.409a10.012,10.012,0,0,1-3.649.638c-4.432-.063-8.857-.019-13.288-.013a8.36,8.36,0,0,1-2.973-.65,10.759,10.759,0,0,1,7.891-8.491A9.033,9.033,0,0,1,92.891,545.292Z" transform="translate(-87.31 -539.099)" fill="#93b04a"/>
</svg>
