<svg xmlns="http://www.w3.org/2000/svg" xmlns:xlink="http://www.w3.org/1999/xlink" width="105.647" height="75.787" viewBox="0 0 105.647 75.787">
  <defs>
    <clipPath id="clip-path">
      <rect id="SVGID" width="87.011" height="53.5" fill="#93b04a"/>
    </clipPath>
    <clipPath id="clip-path-2">
      <rect id="SVGID-2" data-name="SVGID" width="19.636" height="18.969" fill="#93b04a"/>
    </clipPath>
  </defs>
  <g id="组_1981" data-name="组 1981" transform="translate(-236.942 -80.5)">
    <g id="组_1967" data-name="组 1967" transform="translate(-4103.88 -956.531)">
      <g id="组_1966" data-name="组 1966" transform="translate(4359.458 1037.031)">
        <g id="组_1965" data-name="组 1965" transform="translate(0)" clip-path="url(#clip-path)">
          <path id="路径_3682" data-name="路径 3682" d="M4408.307,1063.671c6.3-3.82,11.039-5.127,22.119-3.543,1.266-.718,2.45-1.408,3.454-2.021,12.609-7.742,11.123-15.842,12.471-20.84-8.141.831-36.373.118-48.968,7.86-11.137,6.844-21.782,24.841-24.394,32.191l-13.585,13.35h8.151l10.868-11.682c9.6-1.538,30.715-7.653,44.119-14.587-2.345-.88-11.3-1.413-14.234-.729Zm-27.694,10.412c4.961-4.548,20.9-23.356,52.133-31.947-3.594,2.485-44.148,25.481-52.133,31.947-.758.691-1.174,1.094-1.174,1.094a7.843,7.843,0,0,1,1.174-1.094Zm0,0" transform="translate(-4359.417 -1037.234)" fill="#93b04a"/>
        </g>
      </g>
    </g>
    <g id="组_1970" data-name="组 1970" transform="translate(-2575.854 359.314)">
      <g id="组_1969" data-name="组 1969" transform="translate(2812.796 -221.997)">
        <g id="组_1968" data-name="组 1968" transform="translate(0 0)" clip-path="url(#clip-path-2)">
          <path id="路径_3683" data-name="路径 3683" d="M2826.371-220.325a.426.426,0,0,0-.442-.089l-7.582,2.861a.4.4,0,0,0-.259.421c.006.049.563,4.929-5.25,11.5a.387.387,0,0,0,.022.539L2814-204h0l1.135,1.095a.418.418,0,0,0,.292.116.43.43,0,0,0,.269-.095c6.814-5.6,11.882-5.065,11.929-5.06a.418.418,0,0,0,.437-.249l2.967-7.308a.388.388,0,0,0-.092-.426Zm1.03,11.568c-1.255-.04-5.892.16-11.953,5.03l-.577-.555,7.994-7.7a1.42,1.42,0,0,0,.648.161,1.376,1.376,0,0,0,1.4-1.348,1.377,1.377,0,0,0-1.4-1.348,1.376,1.376,0,0,0-1.4,1.348,1.294,1.294,0,0,0,.166.625l-7.994,7.7-.576-.555c5.056-5.843,5.27-10.314,5.22-11.518l7.048-2.66,4.18,4.029Zm-4.46-4.418a.566.566,0,0,1,.574-.524.566.566,0,0,1,.574.524.554.554,0,0,1-.355.509.59.59,0,0,1-.624-.118.539.539,0,0,1-.168-.391Zm9.3-3.781-4.831-4.656a.424.424,0,0,0-.579,0,.388.388,0,0,0-.005.558l4.832,4.656a.418.418,0,0,0,.292.118.417.417,0,0,0,.292-.118.387.387,0,0,0,0-.562Zm0,0" transform="translate(-2812.741 221.737)" fill="#93b04a"/>
        </g>
      </g>
    </g>
  </g>
</svg>
