<svg xmlns="http://www.w3.org/2000/svg" xmlns:xlink="http://www.w3.org/1999/xlink" width="19.699" height="19.721" viewBox="0 0 19.699 19.721">
  <defs>
    <clipPath id="clip-path">
      <rect id="矩形_1500" data-name="矩形 1500" width="19.699" height="19.721" fill="#93b04a"/>
    </clipPath>
  </defs>
  <g id="组_1980" data-name="组 1980" transform="translate(-3140.012 1351.801)">
    <g id="组_1978" data-name="组 1978" transform="translate(3140.012 -1351.801)">
      <g id="组_1977" data-name="组 1977" transform="translate(0 0)" clip-path="url(#clip-path)">
        <path id="路径_3686" data-name="路径 3686" d="M3149.734-1351.281a9.871,9.871,0,0,0-9.842,9.842,9.9,9.9,0,0,0,1.569,5.321s1.476,1.968.8,3.26a4.4,4.4,0,0,1-1.876,1.261h9.35a9.871,9.871,0,0,0,9.842-9.842,9.871,9.871,0,0,0-9.842-9.842Zm5.105,15.84c-.984.984-4.429.092-7.782-3.352-3.414-3.445-4.306-6.89-3.321-7.751.8-.8,1.784-2.153,3.137-.4,1.476,1.784.8,2.276-.092,3.137-.584.584.677,2.061,1.968,3.352s2.768,2.461,3.353,1.876c.8-.8,1.292-1.569,3.137-.092,1.784,1.476.492,2.46-.4,3.229Zm0,0" transform="translate(-3139.895 1351.294)" fill="#93b04a"/>
      </g>
    </g>
  </g>
</svg>
