<svg id="组_2647" data-name="组 2647" xmlns="http://www.w3.org/2000/svg" xmlns:xlink="http://www.w3.org/1999/xlink" width="18.189" height="20.626" viewBox="0 0 18.189 20.626">
  <defs>
    <clipPath id="clip-path">
      <rect id="矩形_1511" data-name="矩形 1511" width="18.189" height="20.626" fill="none" stroke="#667d3e" stroke-width="1"/>
    </clipPath>
  </defs>
  <g id="组_2008" data-name="组 2008" transform="translate(0 0)">
    <g id="组_2007" data-name="组 2007" transform="translate(0)" clip-path="url(#clip-path)">
      <path id="路径_3696" data-name="路径 3696" d="M-1474.6-4660.1c4.928,0,8.372-3.4,9.053-8.34,1.192-8.642-3.493-11.959-3.944-12.244-2.257,5.733-4.609,3.178-5.109,3.178.449-.93,2.365-2.4,2.024-2.194-.084.053-3.777-.543-7.835,3.324a10.385,10.385,0,0,0-3.112,7.574,8.814,8.814,0,0,0,8.923,8.7Zm-4.628-11.108s-1.108,3.321,1.193,3.071,2.812-2.908,6.135-2.908c0,0-2.775,4.2-1.029,4.986s2.206-.166,3.834-1.328c-.212,1.869-.939,5.651-6.3,5.236s-7.917-5.069-3.827-9.057Zm0,0" transform="translate(1483.524 4680.699)" fill="none" stroke="#667d3e" stroke-width="1"/>
    </g>
  </g>
</svg>
