<svg id="组_2015" data-name="组 2015" xmlns="http://www.w3.org/2000/svg" xmlns:xlink="http://www.w3.org/1999/xlink" width="20.75" height="14.411" viewBox="0 0 20.75 14.411">
  <defs>
    <clipPath id="clip-path">
      <rect id="矩形_1509" data-name="矩形 1509" width="20.75" height="14.411" fill="#667d3e"/>
    </clipPath>
  </defs>
  <g id="组_2002" data-name="组 2002" transform="translate(0 0)">
    <g id="组_2001" data-name="组 2001" transform="translate(0 0)" clip-path="url(#clip-path)">
      <path id="路径_3694" data-name="路径 3694" d="M-2548.682-4719.539l-1.385-4.2c-.052-.182-.762-2.547-2.113-2.973a2.471,2.471,0,0,0-2.9,1.491l-.2.375-.771-2.354s-1.152-4.058-3.273-4.719c-2.857-.9-4.4,2.283-4.4,2.283l-5.507,10.461a1.172,1.172,0,0,0,.019.959.866.866,0,0,0,.691.513l14.271-.072h4.546a1.073,1.073,0,0,0,.916-.567,1.489,1.489,0,0,0,.115-1.207Zm0,0" transform="translate(2569.324 4732.085)" fill="#667d3e"/>
    </g>
  </g>
</svg>
