<svg xmlns="http://www.w3.org/2000/svg" width="20.458" height="19.456" viewBox="0 0 20.458 19.456">
  <g id="组_2023" data-name="组 2023" transform="translate(-1992.256 -8726)">
    <path id="减去_4" data-name="减去 4" d="M16.072,19.956c-.108,0-.209,0-.3-.006-1.576-.023-3.241-.033-5.237-.033-1.482,0-3.044.006-4.3.011l-.768,0c-.857,0-1.725.006-2.583.007H2.775A8.283,8.283,0,0,1,0,19.3a11.545,11.545,0,0,1,2.218-4.8,9.9,9.9,0,0,1,4.163-3.119,5.275,5.275,0,0,0,6.545.059,9.241,9.241,0,0,1,4.208,3.06,11.117,11.117,0,0,1,2.175,4.828A9.964,9.964,0,0,1,16.072,19.956Z" transform="translate(1992.834 8725)" fill="none" stroke="#667d3e" stroke-miterlimit="10" stroke-width="1"/>
    <g id="椭圆_126" data-name="椭圆 126" transform="translate(1998 8726)" fill="none" stroke="#667d3e" stroke-width="1">
      <ellipse cx="4.5" cy="5" rx="4.5" ry="5" stroke="none"/>
      <ellipse cx="4.5" cy="5" rx="4" ry="4.5" fill="none"/>
    </g>
  </g>
</svg>
