<svg xmlns="http://www.w3.org/2000/svg" width="29" height="30" viewBox="0 0 29 30">
  <g id="组_3556" data-name="组 3556" transform="translate(-330 -44)">
    <rect id="矩形_1598" data-name="矩形 1598" width="29" height="30" rx="6" transform="translate(330 44)" fill="#fff"/>
    <g id="组_2668" data-name="组 2668" transform="translate(457 51.018)">
      <g id="组_2666" data-name="组 2666" transform="translate(-121 -2.456)">
        <path id="路径_7023" data-name="路径 7023" d="M-113.4-2.3a.663.663,0,0,0-.524.586,3.085,3.085,0,0,1-1.543,2.53,3.178,3.178,0,0,1-2.977.093.632.632,0,0,0-.771.154,9.549,9.549,0,0,0-1.743,2.931.648.648,0,0,0,.231.756,3.085,3.085,0,0,1,1.4,2.622,3.085,3.085,0,0,1-1.4,2.622.617.617,0,0,0-.231.74,9.547,9.547,0,0,0,1.681,2.931.648.648,0,0,0,.771.17,3.085,3.085,0,0,1,3,.051,3.085,3.085,0,0,1,1.539,2.571.648.648,0,0,0,.524.571,9.412,9.412,0,0,0,3.394,0,.617.617,0,0,0,.524-.571,3.085,3.085,0,0,1,1.539-2.571,3.085,3.085,0,0,1,3-.051.648.648,0,0,0,.771-.17,9.915,9.915,0,0,0,1.774-2.931.632.632,0,0,0-.247-.74,3.178,3.178,0,0,1-1.4-2.622,3.085,3.085,0,0,1,1.4-2.622.663.663,0,0,0,.247-.524.905.905,0,0,0,0-.216,9.8,9.8,0,0,0-1.7-2.946.632.632,0,0,0-.771-.154,3.085,3.085,0,0,1-2.962-.093,3.085,3.085,0,0,1-1.543-2.53A.632.632,0,0,0-110-2.3a9.411,9.411,0,0,0-3.394,0ZM-108,8.187a3.243,3.243,0,0,1-.093.37.648.648,0,0,1-.8.416.633.633,0,0,1-.367-.318.632.632,0,0,1-.034-.484V7.91a2.07,2.07,0,0,0,0-.54,2.53,2.53,0,0,0-1.582-2.358,2.53,2.53,0,0,0-2.776.6,2.53,2.53,0,0,0-.474,2.8A2.53,2.53,0,0,0-111.7,9.884a2.313,2.313,0,0,0,.8-.139.637.637,0,0,1,.81.393.637.637,0,0,1-.393.81,3.671,3.671,0,0,1-1.219.216A3.8,3.8,0,0,1-115.5,7.37,3.8,3.8,0,0,1-111.7,3.575a3.8,3.8,0,0,1,3.795,3.795,3.6,3.6,0,0,1-.093.818Zm0,0" transform="translate(121 2.456)" fill="#757575"/>
      </g>
    </g>
  </g>
</svg>
