<svg xmlns="http://www.w3.org/2000/svg" width="21" height="20.077" viewBox="0 0 21 20.077">
  <g id="组_3565" data-name="组 3565" transform="translate(-40 -55)">
    <g id="组_2649" data-name="组 2649" transform="translate(5349.005 5323.641)">
      <path id="路径_6235" data-name="路径 6235" d="M-5281.292-4836.69l6.465.3s3.87,5.97,5.592,0c0-.073,6.519-.3,6.519-.3l.477,2.131-.293,3.187-17.8.551s-.9-.8-.96-.916,0-4.953,0-4.953Zm0,0" transform="translate(-27.015 -418.174)" fill="#757575"/>
      <path id="路径_6236" data-name="路径 6236" d="M-5289.447-5188.817h0l-2.7-6.221a2.173,2.173,0,0,0-1.858-1.227h-10a2.17,2.17,0,0,0-1.858,1.227l-2.7,6.221a6.287,6.287,0,0,0-.442,2.134v4.032a1.508,1.508,0,0,0,1.5,1.512h17a1.508,1.508,0,0,0,1.5-1.512v-4.033A6.276,6.276,0,0,0-5289.447-5188.817Zm-18.2.4,2.7-6.219a1.171,1.171,0,0,1,.942-.622h10a1.166,1.166,0,0,1,.943.622l2.7,6.221c.029.069.061.15.088.234a1.44,1.44,0,0,0-.229-.017h-6a.5.5,0,0,0-.5.5v.5a2.008,2.008,0,0,1-2,2.007,2.008,2.008,0,0,1-2-2.007v-.507a.5.5,0,0,0-.5-.5h-6a1.389,1.389,0,0,0-.229.017C-5307.706-5188.266-5307.676-5188.345-5307.647-5188.414Z" transform="translate(0 -67.425)" fill="#757575"/>
      <path id="路径_6237" data-name="路径 6237" d="M-5249.727-4819.723a.5.5,0,0,1-.5.5h-17a.5.5,0,0,1-.5-.5v-4a.5.5,0,0,1,.5-.5h5.5a3,3,0,0,0,1.5,2.6,3,3,0,0,0,3,0,3,3,0,0,0,1.5-2.6h5.5a.5.5,0,0,1,.5.5v4Z" transform="translate(-40.277 -430.341)" fill="#757575"/>
      <path id="路径_6238" data-name="路径 6238" d="M-4988.67-5265.362" transform="translate(-312.585)" fill="#757575"/>
    </g>
    <g id="组_3564" data-name="组 3564" transform="translate(0 2)">
      <circle id="椭圆_136" data-name="椭圆 136" cx="5.5" cy="5.5" r="5.5" transform="translate(50 54)" fill="#db3e2a"/>
      <text id="_16" data-name="16" transform="translate(51 63)" fill="#fff" font-size="9" font-family="PingFangSC-Regular, PingFang SC" letter-spacing="0.005em"><tspan x="0" y="0">16</tspan></text>
    </g>
  </g>
</svg>
